<svg xmlns="http://www.w3.org/2000/svg" width="500" height="500" style="shape-rendering:geometricPrecision;text-rendering:geometricPrecision;image-rendering:optimizeQuality;fill-rule:evenodd;clip-rule:evenodd"><path style="opacity:1" fill="#181818" d="M228.5-.5h42c63.282 6.476 116.949 32.476 161 78 .58 2.249 1.913 3.915 4 5 1.667 1 3 2.333 4 4-.073 1.527.594 2.527 2 3a71.965 71.965 0 0 1 9 11c-.073 1.527.594 2.527 2 3 1.474.936 2.474 2.27 3 4-.073 1.527.594 2.527 2 3-.073 1.527.594 2.527 2 3 22.676 34.693 36.009 72.693 40 114v44c-11.914 95.388-60.914 164.222-147 206.5-26.304 11.574-53.637 18.741-82 21.5h-42c-39.636-3.545-76.303-15.879-110-37-.473-1.406-1.473-2.073-3-2-3.525-1.259-6.525-3.259-9-6-.473-1.406-1.473-2.073-3-2-1.904-.238-3.238-1.238-4-3-.473-1.406-1.473-2.073-3-2-2.932-1.3-5.266-3.3-7-6-.473-1.406-1.473-2.073-3-2-1.667-1-3-2.333-4-4-1.41-2.414-3.41-4.081-6-5-44.652-43.641-70.319-96.641-77-159v-43a406.054 406.054 0 0 1 5-31c1.663-1.938 2.33-4.272 2-7 6.162-27.846 17.162-53.512 33-77 1.406-.473 2.073-1.473 2-3a122.314 122.314 0 0 1 16-21c1.406-.473 2.073-1.473 2-3 1-1.667 2.333-3 4-4 2.414-1.41 4.08-3.41 5-6 1-1.667 2.333-3 4-4 3.264-1.594 5.93-3.927 8-7 1-1.667 2.333-3 4-4 2.249-.58 3.915-1.913 5-4 40.182-33.737 86.515-53.07 139-58zm98 24c1.43 1.038 3.097 1.704 5 2a385.07 385.07 0 0 1 34 15c.473 1.406 1.473 2.073 3 2 1.014 1.174 2.347 1.84 4 2 .473 1.406 1.473 2.073 3 2 .473 1.406 1.473 2.073 3 2 .473 1.406 1.473 2.073 3 2 .473 1.406 1.473 2.073 3 2a185.526 185.526 0 0 0 18 14c.473 1.406 1.473 2.073 3 2 2 2.667 4.333 5 7 7a6.544 6.544 0 0 0 3 3c.473 1.406 1.473 2.073 3 2v1c1 1.667 2.333 3 4 4 54.64 60.525 74.807 131.192 60.5 212a304.615 304.615 0 0 1-23.5 66c-1.406.473-2.073 1.473-2 3a168.886 168.886 0 0 0-9 15c-1.406.473-2.073 1.473-2 3a185.447 185.447 0 0 0-14 18c-1.762.762-2.762 2.096-3 4-2.667 2-5 4.333-7 7a159.435 159.435 0 0 0-15 15c-.667 0-1 .333-1 1-2.589.919-4.589 2.586-6 5a46.493 46.493 0 0 0-9 7c-1.527-.073-2.527.594-3 2-23.063 16.032-48.063 28.032-75 36-2.652-.09-4.985.576-7 2-88.055 17.91-164.388-4.09-229-66-.58-2.249-1.913-3.915-4-5a25.647 25.647 0 0 0-6-6c.073-1.527-.594-2.527-2-3-.333-1-1-1.667-2-2 .073-1.527-.594-2.527-2-3a6605.306 6605.306 0 0 0-13-18c.073-1.527-.594-2.527-2-3-11.821-20.638-21.155-42.304-28-65-.065-2.928-.732-5.595-2-8-15.116-77.534 2.05-146.867 51.5-208C128.373 27.927 203.206 1.427 292.5 15a316.704 316.704 0 0 1 34 8.5z"/><path style="opacity:.882" fill="#818181" d="M326.5 23.5c2.198-.38 3.865.287 5 2-1.903-.296-3.57-.962-5-2z"/><path style="opacity:.388" fill="#989898" d="M365.5 40.5c1.527-.073 2.527.594 3 2-1.527.073-2.527-.594-3-2z"/><path style="opacity:.533" fill="#868686" d="M372.5 44.5c1.527-.073 2.527.594 3 2-1.527.073-2.527-.594-3-2z"/><path style="opacity:.533" fill="#8a8a8a" d="M375.5 46.5c1.527-.073 2.527.594 3 2-1.527.073-2.527-.594-3-2z"/><path style="opacity:.49" fill="#909090" d="M378.5 48.5c1.527-.073 2.527.594 3 2-1.527.073-2.527-.594-3-2z"/><path style="opacity:.529" fill="#8f8f8f" d="M381.5 50.5c1.527-.073 2.527.594 3 2-1.527.073-2.527-.594-3-2z"/><path style="opacity:.863" fill="#727272" d="M89.5 57.5c-1.085 2.087-2.751 3.42-5 4 1.085-2.087 2.751-3.42 5-4z"/><path style="opacity:1" fill="#050505" d="M343.5 66.5c8.39 1.241 16.39 3.908 24 8 .667 0 1 .333 1 1a6.544 6.544 0 0 0 3 3c.58 2.249 1.913 3.915 4 5 .838.342 1.172 1.008 1 2 .252 3.827 1.585 7.16 4 10v1c-.09 2.652.576 4.985 2 7v2a1350.84 1350.84 0 0 1 0 91c-.934 1.068-1.268 2.401-1 4h-32c.016-30.852-.317-61.852-1-93 .039-2.589-.961-4.589-3-6-.558-1.29-1.558-2.123-3-2.5-12.349-3.588-19.183.912-20.5 13.5-.012 58.332.155 116.665.5 175-.291 34.018.042 68.018 1 102-.334 2.991.666 5.324 3 7 2.011 3.166 5.011 4.5 9 4 4.074.289 7.408-1.044 10-4 2.482-2.003 3.482-4.669 3-8a24.93 24.93 0 0 1 1-8 1723.12 1723.12 0 0 0 1-83h31v103c-1.574 3.407-2.574 7.073-3 11-.16 1.653-.826 2.986-2 4-1.406.473-2.073 1.473-2 3a25.658 25.658 0 0 0-6 6c0 .667-.333 1-1 1-1.653.16-2.986.826-4 2-.342.838-1.008 1.172-2 1-6.665 1.988-13.331 3.321-20 4-7.42.297-14.754-.036-22-1-1.602-1.574-3.602-2.241-6-2h-1c-.473-1.406-1.473-2.073-3-2h-1c-.473-1.406-1.473-2.073-3-2-1-.333-1.667-1-2-2a6.547 6.547 0 0 0-3-3c-1-.333-1.667-1-2-2-.16-1.653-.826-2.986-2-4-.838-.342-1.172-1.008-1-2a109.866 109.866 0 0 0-4-13 53.78 53.78 0 0 1-2-16c.785-50.167.785-100.167 0-150v-85a385.117 385.117 0 0 1 2-51v-2c1.81-2.645 2.81-5.645 3-9 1.406-.473 2.073-1.473 2-3a18.474 18.474 0 0 0 4-6 35.904 35.904 0 0 0 8-6c.342-.838 1.008-1.172 2-1 3.416-.028 6.416-1.028 9-3 7.816-.992 15.816-1.326 24-1z"/><path style="opacity:.761" fill="#878787" d="M402.5 66.5c1.527-.073 2.527.594 3 2-1.527.073-2.527-.594-3-2z"/><path style="opacity:.098" fill="#b8b8b8" d="M343.5 66.5c9.252-.69 17.252 1.978 24 8-7.61-4.092-15.61-6.759-24-8z"/><path style="opacity:.733" fill="#7b7b7b" d="M80.5 65.5c-2.07 3.073-4.736 5.406-8 7 2.07-3.073 4.736-5.406 8-7z"/><path style="opacity:.773" fill="#7d7d7d" d="M319.5 67.5c-2.584 1.972-5.584 2.972-9 3 2.645-1.81 5.645-2.81 9-3z"/><path style="opacity:1" d="M147.5 70.5c-.333 109.835.001 219.501 1 329 8.818.993 17.818 1.327 27 1v32h-60v-362h32z"/><path style="opacity:.294" fill="#c9c9c9" d="M207.5 75.5h-1v-4h-32v74a1406.59 1406.59 0 0 1-1-75h34v5z"/><path style="opacity:.395" fill="#a0a0a0" d="M148.5 70.5h-33v362c-1-120.832-1.333-241.832-1-363 11.512-.328 22.846.005 34 1z"/><path style="opacity:1" fill="#010101" d="M206.5 75.5v76a372.152 372.152 0 0 0 1.5 42c.39 2.604 1.224 4.938 2.5 7a31.686 31.686 0 0 1 2 6c-.38 2.198.287 3.865 2 5 .838.342 1.172 1.008 1 2-.073 1.527.594 2.527 2 3 1.174 1.014 1.84 2.347 2 4 .238 1.904 1.238 3.238 3 4 .838.342 1.172 1.008 1 2 .238 1.904 1.238 3.238 3 4 .238 1.904 1.238 3.238 3 4a8.941 8.941 0 0 0 3 4l1 2c.283.789.783 1.456 1.5 2 .5-56.999.667-113.999.5-171h31v360h-32v-28c1.461-33.201.961-66.534-1.5-100-.644-4.119-2.144-7.785-4.5-11-.838-.342-1.172-1.008-1-2-.61-1.934-1.61-3.601-3-5-.667 0-1-.333-1-1 .073-1.527-.594-2.527-2-3 .073-1.527-.594-2.527-2-3-1.406-.473-2.073-1.473-2-3-.432-1.21-1.099-2.21-2-3-1-.333-1.667-1-2-2 .073-1.527-.594-2.527-2-3-.054-2.132-1.054-3.465-3-4 .073-1.527-.594-2.527-2-3-.838-.342-1.172-1.008-1-2-.333-1-1-1.667-2-2-1.692-1.705-3.025-3.705-4-6 .241-2.534-.759-4.2-3-5-.25-2.174-1.25-3.841-3-5-1.39-1.399-2.39-3.066-3-5 .073-1.527-.594-2.527-2-3-1.1-1.105-1.767-2.438-2-4-.492-2.319-1.492-4.319-3-6-.838-.342-1.172-1.008-1-2-.428-3.285-1.428-6.285-3-9-.398-4.261-1.398-8.261-3-12 .245-5.584-.422-10.917-2-16v-112h32v4z"/><path style="opacity:.578" fill="#949494" d="M234.5 71.5v-1h34v362h-34v-1h32v-360h-32z"/><path style="opacity:.239" fill="#c4c4c4" d="M308.5 71.5a35.904 35.904 0 0 1-8 6c1.799-3.13 4.466-5.13 8-6z"/><path style="opacity:.02" fill="#d8d8d8" d="M368.5 75.5c2 0 3 1 3 3a6.544 6.544 0 0 1-3-3z"/><path style="opacity:.725" fill="#9b9b9b" d="M412.5 75.5c2 0 3 1 3 3a6.544 6.544 0 0 1-3-3z"/><path style="opacity:.631" fill="#9d9d9d" d="M415.5 78.5c1.527-.073 2.527.594 3 2-1.527.073-2.527-.594-3-2z"/><path style="opacity:.702" fill="#a0a0a0" d="M431.5 77.5c2.087 1.085 3.42 2.751 4 5-2.087-1.085-3.42-2.751-4-5z"/><path style="opacity:.663" fill="#8e8e8e" d="M68.5 76.5c-.92 2.59-2.586 4.59-5 6 .92-2.59 2.586-4.59 5-6z"/><path style="opacity:.137" fill="#b8b8b8" d="M300.5 77.5a18.474 18.474 0 0 1-4 6c.122-2.792 1.456-4.792 4-6z"/><path style="opacity:.208" fill="#acacac" d="M371.5 78.5c2.087 1.085 3.42 2.751 4 5-2.087-1.085-3.42-2.751-4-5z"/><path style="opacity:1" fill="#636363" d="M418.5 81.5c2.679.025 4.012 1.358 4 4-1.667-1-3-2.333-4-4z"/><path style="opacity:.239" fill="#b8b8b8" d="M296.5 83.5c.073 1.527-.594 2.527-2 3-.073-1.527.594-2.527 2-3z"/><path style="opacity:.729" fill="#8d8d8d" d="M59.5 86.5c.073 1.527-.594 2.527-2 3-.073-1.527.594-2.527 2-3z"/><path style="opacity:.729" fill="#949494" d="M439.5 86.5c1.406.473 2.073 1.473 2 3-1.406-.473-2.073-1.473-2-3z"/><path style="opacity:.969" fill="#7d7d7d" d="M376.5 85.5c2.415 2.84 3.748 6.173 4 10-2.415-2.84-3.748-6.173-4-10z"/><path style="opacity:.486" fill="#b0b0b0" d="M294.5 86.5c-.19 3.355-1.19 6.355-3 9 .028-3.416 1.028-6.416 3-9z"/><path style="opacity:.075" fill="#c7c7c7" d="M380.5 96.5c1.424 2.014 2.09 4.348 2 7-1.424-2.015-2.09-4.348-2-7z"/><path style="opacity:.498" fill="#939393" d="M450.5 100.5c1.406.473 2.073 1.473 2 3-1.406-.473-2.073-1.473-2-3z"/><path style="opacity:.853" fill="#242424" d="M234.5 71.5h1c.167 57.001 0 114.001-.5 171-.717-.544-1.217-1.211-1.5-2a7142.645 7142.645 0 0 0 1-169z"/><path style="opacity:.165" fill="#cbcbcb" d="M345.5 101.5c2.039 1.411 3.039 3.411 3 6-1.508-1.681-2.508-3.681-3-6z"/><path style="opacity:.502" fill="#959595" d="M455.5 107.5c1.406.473 2.073 1.473 2 3-1.406-.473-2.073-1.473-2-3z"/><path style="opacity:.435" fill="#919191" d="M41.5 110.5c.073 1.527-.594 2.527-2 3-.073-1.527.594-2.527 2-3z"/><path style="opacity:.435" fill="#969696" d="M457.5 110.5c1.406.473 2.073 1.473 2 3-1.406-.473-2.073-1.473-2-3z"/><path style="opacity:.787" fill="#797979" d="M206.5 75.5h1a730.34 730.34 0 0 1 0 76h-1v-76z"/><path style="opacity:.559" fill="#878787" d="M291.5 97.5a385.117 385.117 0 0 0-2 51c-.994-9.486-1.327-19.152-1-29 .256-2.292-.077-4.459-1-6.5a165.031 165.031 0 0 1 4-15.5z"/><path style="opacity:.117" fill="#cbcbcb" d="M345.5 101.5c-12.931-5.788-20.431-1.788-22.5 12 .343 58.128.176 116.128-.5 174-.345-58.335-.512-116.668-.5-175 1.317-12.588 8.151-17.088 20.5-13.5 1.442.377 2.442 1.21 3 2.5z"/><path style="opacity:.176" fill="#d4d4d4" d="M234.5 70.5v1a7142.645 7142.645 0 0 1-1 169l-1-2a2962.08 2962.08 0 0 0 0-148.5l.5-18.5c.383-.556.883-.89 1.5-1z"/><path style="opacity:.278" fill="#a9a9a9" d="M206.5 151.5h1c-.61 16.451.39 32.784 3 49-1.276-2.062-2.11-4.396-2.5-7a372.152 372.152 0 0 1-1.5-42z"/><path style="opacity:.537" fill="#777" d="M147.5 70.5h1c-.661 109.878.005 219.544 2 329h-2a27067.194 27067.194 0 0 1-1-329z"/><path style="opacity:.107" fill="#e4e4e4" d="M288.5 119.5c-.327 9.848.006 19.514 1 29v69a9960.039 9960.039 0 0 1-2-49.5 1447.59 1447.59 0 0 1 1-48.5z"/><path style="opacity:.922" fill="#7b7b7b" d="M6.5 190.5c.33 2.728-.337 5.062-2 7 .221-2.567.888-4.901 2-7z"/><path style="opacity:.118" fill="#cfcfcf" d="M174.5 183.5c1.578 5.083 2.245 10.416 2 16-1.306-5.116-1.973-10.449-2-16z"/><path style="opacity:.724" fill="#484848" d="M382.5 196.5v5h-20c-4.532.318-8.866-.015-13-1h32c-.268-1.599.066-2.932 1-4z"/><path style="opacity:.098" fill="#d0d0d0" d="M382.5 105.5c.814 2.131 1.314 4.464 1.5 7 .409 30.002.242 60.002-.5 90-7.187.325-14.187-.009-21-1h20v-5a1350.84 1350.84 0 0 0 0-91z"/><path style="opacity:.11" fill="#bbb" d="M176.5 199.5c1.602 3.739 2.602 7.739 3 12-1.916-3.663-2.916-7.663-3-12z"/><path style="opacity:.816" fill="#8b8b8b" d="M212.5 206.5c1.431 1.28 2.098 2.947 2 5-1.713-1.135-2.38-2.802-2-5z"/><path style="opacity:.047" fill="silver" d="M179.5 211.5c1.572 2.715 2.572 5.715 3 9-2.368-2.456-3.368-5.456-3-9z"/><path style="opacity:.227" fill="#c3c3c3" d="M215.5 213.5c1.406.473 2.073 1.473 2 3-1.406-.473-2.073-1.473-2-3z"/><path style="opacity:.416" fill="#afafaf" d="M219.5 220.5c1.762.762 2.762 2.096 3 4-1.762-.762-2.762-2.096-3-4z"/><path style="opacity:.118" fill="#c4c4c4" d="M183.5 222.5c1.508 1.681 2.508 3.681 3 6-2.039-1.411-3.039-3.411-3-6z"/><path style="opacity:.533" fill="#9a9a9a" d="M223.5 226.5c1.762.762 2.762 2.096 3 4-1.762-.762-2.762-2.096-3-4z"/><path style="opacity:.455" fill="#ababab" d="M226.5 230.5c1.762.762 2.762 2.096 3 4-1.762-.762-2.762-2.096-3-4z"/><path style="opacity:.129" fill="#d1d1d1" d="M188.5 232.5c1.406.473 2.073 1.473 2 3-1.406-.473-2.073-1.473-2-3z"/><path style="opacity:.008" fill="#c1c1c1" d="M229.5 234.5c2.032.548 3.032 1.881 3 4a8.941 8.941 0 0 1-3-4z"/><path style="opacity:.227" fill="#c3c3c3" d="M193.5 240.5c1.75 1.159 2.75 2.826 3 5-1.75-1.159-2.75-2.826-3-5z"/><path style="opacity:.933" fill="#7e7e7e" d="M196.5 245.5c2.241.8 3.241 2.466 3 5-1.237-1.465-2.237-3.132-3-5z"/><path style="opacity:.004" fill="#e1e1e1" d="M203.5 256.5c1 .333 1.667 1 2 2-1.333 0-2-.667-2-2z"/><path style="opacity:.02" fill="#d3d3d3" d="M206.5 260.5c1.406.473 2.073 1.473 2 3-1.406-.473-2.073-1.473-2-3z"/><path style="opacity:.549" fill="#999" d="M208.5 263.5c1.946.535 2.946 1.868 3 4-1.474-.936-2.474-2.27-3-4z"/><path style="opacity:.082" fill="#d1d1d1" d="M211.5 267.5c1.406.473 2.073 1.473 2 3-1.406-.473-2.073-1.473-2-3z"/><path style="opacity:.098" fill="#cacaca" d="M215.5 272.5c.901.79 1.568 1.79 2 3-1.548-.321-2.215-1.321-2-3z"/><path style="opacity:.11" fill="#cfcfcf" d="M219.5 278.5c1.406.473 2.073 1.473 2 3-1.406-.473-2.073-1.473-2-3z"/><path style="opacity:.027" fill="#d4d4d4" d="M221.5 281.5c1.406.473 2.073 1.473 2 3-1.406-.473-2.073-1.473-2-3z"/><path style="opacity:.094" fill="#c7c7c7" d="M224.5 285.5c1.39 1.399 2.39 3.066 3 5-2.227-.901-3.227-2.567-3-5z"/><path style="opacity:.239" fill="#acacac" d="M228.5 292.5c2.356 3.215 3.856 6.881 4.5 11 2.461 33.466 2.961 66.799 1.5 100v-15c-.268-28.02-1.101-56.02-2.5-84a251.889 251.889 0 0 0-3.5-12z"/><path style="opacity:.965" fill="#676767" d="M16.5 302.5c1.268 2.405 1.935 5.072 2 8-1.54-2.338-2.206-5.005-2-8z"/><path style="opacity:.852" fill="#545454" d="M349.5 296.5c10.846-.328 21.513.006 32 1h-31a1723.12 1723.12 0 0 1-1 83 7396.269 7396.269 0 0 1 0-84z"/><path style="opacity:.144" fill="#cecece" d="M349.5 296.5c10.821-.995 21.821-1.328 33-1v44h-1v-42c-10.487-.994-21.154-1.328-32-1z"/><path style="opacity:.385" fill="#adadad" d="M289.5 233.5c.785 49.833.785 99.833 0 150a5734.174 5734.174 0 0 1 0-150z"/><path style="opacity:.467" fill="#939393" d="M459.5 363.5c.073 1.527-.594 2.527-2 3-.073-1.527.594-2.527 2-3z"/><path style="opacity:.978" fill="#4a4a4a" d="M381.5 339.5h1a558.954 558.954 0 0 1 .5 55c-.191 2.208-.691 4.208-1.5 6v-61z"/><path style="opacity:.498" fill="#939393" d="M46.5 375.5c1.406.473 2.073 1.473 2 3-1.406-.473-2.073-1.473-2-3z"/><path style="opacity:.592" fill="#818181" d="M448.5 381.5c.073 1.527-.594 2.527-2 3-.073-1.527.594-2.527 2-3z"/><path style="opacity:.137" fill="#acacac" d="M348.5 388.5c.482 3.331-.518 5.997-3 8 .48-2.943 1.48-5.61 3-8z"/><path style="opacity:.18" fill="#c5c5c5" d="M323.5 389.5c1.236 2.149 2.236 4.482 3 7-2.334-1.676-3.334-4.009-3-7z"/><path style="opacity:.529" fill="#949494" d="M61.5 396.5c1.406.473 2.073 1.473 2 3-1.406-.473-2.073-1.473-2-3z"/><path style="opacity:.624" fill="#8f8f8f" d="M326.5 396.5c6.347 3.893 12.68 3.893 19 0-2.592 2.956-5.926 4.289-10 4-3.989.5-6.989-.834-9-4z"/><path style="opacity:.78" fill="#868686" d="M65.5 401.5c1.406.473 2.073 1.473 2 3-1.406-.473-2.073-1.473-2-3z"/><path style="opacity:.677" fill="#838383" d="M175.5 432.5v-32c-9.182.327-18.182-.007-27-1h2a544.351 544.351 0 0 1 26 0l1 16.5c-.005 5.876-.671 11.376-2 16.5z"/><path style="opacity:.055" fill="#b8b8b8" d="M381.5 400.5c.068 4.07-.932 7.737-3 11 .426-3.927 1.426-7.593 3-11z"/><path style="opacity:.78" fill="#858585" d="M432.5 402.5c-.238 1.904-1.238 3.238-3 4 .238-1.904 1.238-3.238 3-4z"/><path style="opacity:.216" fill="#bcbcbc" d="M291.5 399.5c1.576 4.166 2.909 8.5 4 13-2.707-3.807-4.04-8.14-4-13z"/><path style="opacity:.753" fill="#959595" d="M73.5 410.5c2.087 1.085 3.42 2.751 4 5-2.087-1.085-3.42-2.751-4-5z"/><path style="opacity:.12" fill="#e6e6e6" d="M234.5 388.5v44a211.123 211.123 0 0 1-2-15c.591-9.823 1.258-19.49 2-29z"/><path style="opacity:.125" fill="#cdcdcd" d="M296.5 414.5c1.174 1.014 1.84 2.347 2 4-1.604-.787-2.271-2.12-2-4z"/><path style="opacity:.671" fill="gray" d="M422.5 413.5c-4 6-9 11-15 15a159.435 159.435 0 0 1 15-15z"/><path style="opacity:.18" fill="#bbb" d="M376.5 415.5c.073 1.527-.594 2.527-2 3-.073-1.527.594-2.527 2-3z"/><path style="opacity:.035" fill="#d5d5d5" d="M374.5 418.5c-1 3-3 5-6 6a25.658 25.658 0 0 1 6-6z"/><path style="opacity:.027" fill="#c7c7c7" d="M300.5 420.5a6.547 6.547 0 0 1 3 3c-2 0-3-1-3-3z"/><path style="opacity:.208" fill="#c3c3c3" d="M305.5 425.5c1.527-.073 2.527.594 3 2-1.527.073-2.527-.594-3-2z"/><path style="opacity:.129" fill="#c6c6c6" d="M367.5 425.5c-.787 1.604-2.12 2.271-4 2 1.014-1.174 2.347-1.84 4-2z"/><path style="opacity:.247" fill="#b2b2b2" d="M309.5 427.5c1.527-.073 2.527.594 3 2-1.527.073-2.527-.594-3-2z"/><path style="opacity:.737" fill="#9d9d9d" d="M76.5 430.5c2.59.919 4.59 2.586 6 5-2.59-.919-4.59-2.586-6-5z"/><path style="opacity:.278" fill="#b3b3b3" d="M313.5 429.5c2.398-.241 4.398.426 6 2-2.398.241-4.398-.426-6-2z"/><path style="opacity:.125" fill="#b7b7b7" d="M361.5 428.5c-6.118 3.418-12.785 4.751-20 4 6.669-.679 13.335-2.012 20-4z"/><path style="opacity:.863" fill="#686868" d="M406.5 429.5c-1.411 2.414-3.411 4.081-6 5 1.411-2.414 3.411-4.081 6-5z"/><path style="opacity:.71" fill="#969696" d="M86.5 439.5c1.527-.073 2.527.594 3 2-1.527.073-2.527-.594-3-2z"/><path style="opacity:.769" fill="#828282" d="M391.5 441.5c-.473 1.406-1.473 2.073-3 2 .473-1.406 1.473-2.073 3-2z"/><path style="opacity:.553" fill="#929292" d="M96.5 447.5c1.527-.073 2.527.594 3 2-1.527.073-2.527-.594-3-2z"/><path style="opacity:.561" fill="#818181" d="M103.5 452.5c1.527-.073 2.527.594 3 2-1.527.073-2.527-.594-3-2z"/><path style="opacity:.439" fill="#979797" d="M115.5 460.5c1.527-.073 2.527.594 3 2-1.527.073-2.527-.594-3-2z"/><path style="opacity:.922" fill="#696969" d="M313.5 479.5c-2.015 1.424-4.348 2.09-7 2 2.015-1.424 4.348-2.09 7-2z"/></svg>