<svg xmlns="http://www.w3.org/2000/svg" version="1.1" width="500px" height="500px" style="shape-rendering:geometricPrecision; text-rendering:geometricPrecision; image-rendering:optimizeQuality; fill-rule:evenodd; clip-rule:evenodd" xmlns:xlink="http://www.w3.org/1999/xlink">
<g><path style="opacity:1" fill="#181818" d="M 228.5,-0.5 C 242.5,-0.5 256.5,-0.5 270.5,-0.5C 333.782,5.97638 387.449,31.9764 431.5,77.5C 432.08,79.7488 433.413,81.4154 435.5,82.5C 437.167,83.5 438.5,84.8333 439.5,86.5C 439.427,88.0269 440.094,89.0269 441.5,89.5C 444.848,92.8514 447.848,96.5181 450.5,100.5C 450.427,102.027 451.094,103.027 452.5,103.5C 453.974,104.436 454.974,105.77 455.5,107.5C 455.427,109.027 456.094,110.027 457.5,110.5C 457.427,112.027 458.094,113.027 459.5,113.5C 482.176,148.193 495.509,186.193 499.5,227.5C 499.5,242.167 499.5,256.833 499.5,271.5C 487.586,366.888 438.586,435.722 352.5,478C 326.196,489.574 298.863,496.741 270.5,499.5C 256.5,499.5 242.5,499.5 228.5,499.5C 188.864,495.955 152.197,483.621 118.5,462.5C 118.027,461.094 117.027,460.427 115.5,460.5C 111.975,459.241 108.975,457.241 106.5,454.5C 106.027,453.094 105.027,452.427 103.5,452.5C 101.596,452.262 100.262,451.262 99.5,449.5C 99.0269,448.094 98.0269,447.427 96.5,447.5C 93.5677,446.2 91.2344,444.2 89.5,441.5C 89.0269,440.094 88.0269,439.427 86.5,439.5C 84.8333,438.5 83.5,437.167 82.5,435.5C 81.0892,433.086 79.0892,431.419 76.5,430.5C 31.848,386.859 6.18132,333.859 -0.5,271.5C -0.5,257.167 -0.5,242.833 -0.5,228.5C 0.747155,218.225 2.41382,207.892 4.5,197.5C 6.16276,195.562 6.82943,193.228 6.5,190.5C 12.6624,162.654 23.6624,136.988 39.5,113.5C 40.9063,113.027 41.573,112.027 41.5,110.5C 46.0731,102.926 51.4065,95.9261 57.5,89.5C 58.9063,89.0269 59.573,88.0269 59.5,86.5C 60.5,84.8333 61.8333,83.5 63.5,82.5C 65.914,81.0892 67.5806,79.0892 68.5,76.5C 69.5,74.8333 70.8333,73.5 72.5,72.5C 75.7642,70.9059 78.4309,68.5725 80.5,65.5C 81.5,63.8333 82.8333,62.5 84.5,61.5C 86.7488,60.9202 88.4154,59.5869 89.5,57.5C 129.682,23.7631 176.015,4.42974 228.5,-0.5 Z M 326.5,23.5 C 327.93,24.5375 329.597,25.2041 331.5,25.5C 343.064,29.948 354.397,34.948 365.5,40.5C 365.973,41.9063 366.973,42.573 368.5,42.5C 369.514,43.6737 370.847,44.3404 372.5,44.5C 372.973,45.9063 373.973,46.573 375.5,46.5C 375.973,47.9063 376.973,48.573 378.5,48.5C 378.973,49.9063 379.973,50.573 381.5,50.5C 381.973,51.9063 382.973,52.573 384.5,52.5C 390.19,57.5179 396.19,62.1846 402.5,66.5C 402.973,67.9063 403.973,68.573 405.5,68.5C 407.5,71.1667 409.833,73.5 412.5,75.5C 413.167,76.8333 414.167,77.8333 415.5,78.5C 415.973,79.9063 416.973,80.573 418.5,80.5C 418.5,80.8333 418.5,81.1667 418.5,81.5C 419.5,83.1667 420.833,84.5 422.5,85.5C 477.14,146.025 497.307,216.692 483,297.5C 477.693,320.437 469.86,342.437 459.5,363.5C 458.094,363.973 457.427,364.973 457.5,366.5C 454.252,371.326 451.252,376.326 448.5,381.5C 447.094,381.973 446.427,382.973 446.5,384.5C 441.482,390.19 436.815,396.19 432.5,402.5C 430.738,403.262 429.738,404.596 429.5,406.5C 426.833,408.5 424.5,410.833 422.5,413.5C 417.167,418.167 412.167,423.167 407.5,428.5C 406.833,428.5 406.5,428.833 406.5,429.5C 403.911,430.419 401.911,432.086 400.5,434.5C 397.19,436.482 394.19,438.815 391.5,441.5C 389.973,441.427 388.973,442.094 388.5,443.5C 365.437,459.532 340.437,471.532 313.5,479.5C 310.848,479.41 308.515,480.076 306.5,481.5C 218.445,499.41 142.112,477.41 77.5,415.5C 76.9202,413.251 75.5869,411.585 73.5,410.5C 71.8333,408.167 69.8333,406.167 67.5,404.5C 67.573,402.973 66.9063,401.973 65.5,401.5C 65.1667,400.5 64.5,399.833 63.5,399.5C 63.573,397.973 62.9063,396.973 61.5,396.5C 57.1546,390.462 52.8212,384.462 48.5,378.5C 48.573,376.973 47.9063,375.973 46.5,375.5C 34.6788,354.862 25.3454,333.196 18.5,310.5C 18.4349,307.572 17.7682,304.905 16.5,302.5C 1.3838,224.966 18.5505,155.633 68,94.5C 128.373,27.9268 203.206,1.4268 292.5,15C 304.012,17.2112 315.345,20.0445 326.5,23.5 Z"/></g>
<g><path style="opacity:0.882" fill="#818181" d="M 326.5,23.5 C 328.698,23.1201 330.365,23.7868 331.5,25.5C 329.597,25.2041 327.93,24.5375 326.5,23.5 Z"/></g>
<g><path style="opacity:0.388" fill="#989898" d="M 365.5,40.5 C 367.027,40.427 368.027,41.0937 368.5,42.5C 366.973,42.573 365.973,41.9063 365.5,40.5 Z"/></g>
<g><path style="opacity:0.533" fill="#868686" d="M 372.5,44.5 C 374.027,44.427 375.027,45.0937 375.5,46.5C 373.973,46.573 372.973,45.9063 372.5,44.5 Z"/></g>
<g><path style="opacity:0.533" fill="#8a8a8a" d="M 375.5,46.5 C 377.027,46.427 378.027,47.0937 378.5,48.5C 376.973,48.573 375.973,47.9063 375.5,46.5 Z"/></g>
<g><path style="opacity:0.49" fill="#909090" d="M 378.5,48.5 C 380.027,48.427 381.027,49.0937 381.5,50.5C 379.973,50.573 378.973,49.9063 378.5,48.5 Z"/></g>
<g><path style="opacity:0.529" fill="#8f8f8f" d="M 381.5,50.5 C 383.027,50.427 384.027,51.0937 384.5,52.5C 382.973,52.573 381.973,51.9063 381.5,50.5 Z"/></g>
<g><path style="opacity:0.863" fill="#727272" d="M 89.5,57.5 C 88.4154,59.5869 86.7488,60.9202 84.5,61.5C 85.5846,59.4131 87.2512,58.0798 89.5,57.5 Z"/></g>
<g><path style="opacity:1" fill="#050505" d="M 343.5,66.5 C 351.89,67.741 359.89,70.4076 367.5,74.5C 368.167,74.5 368.5,74.8333 368.5,75.5C 369.167,76.8333 370.167,77.8333 371.5,78.5C 372.08,80.7488 373.413,82.4154 375.5,83.5C 376.338,83.8417 376.672,84.5084 376.5,85.5C 376.752,89.3267 378.085,92.6601 380.5,95.5C 380.5,95.8333 380.5,96.1667 380.5,96.5C 380.41,99.1522 381.076,101.485 382.5,103.5C 382.5,104.167 382.5,104.833 382.5,105.5C 383.522,135.827 383.522,166.16 382.5,196.5C 381.566,197.568 381.232,198.901 381.5,200.5C 370.833,200.5 360.167,200.5 349.5,200.5C 349.516,169.648 349.183,138.648 348.5,107.5C 348.539,104.911 347.539,102.911 345.5,101.5C 344.942,100.21 343.942,99.3768 342.5,99C 330.151,95.4121 323.317,99.9121 322,112.5C 321.988,170.832 322.155,229.165 322.5,287.5C 322.209,321.518 322.542,355.518 323.5,389.5C 323.166,392.491 324.166,394.824 326.5,396.5C 328.511,399.666 331.511,401 335.5,400.5C 339.574,400.789 342.908,399.456 345.5,396.5C 347.982,394.497 348.982,391.831 348.5,388.5C 348.401,385.763 348.735,383.096 349.5,380.5C 350.498,353.005 350.831,325.338 350.5,297.5C 360.833,297.5 371.167,297.5 381.5,297.5C 381.5,311.5 381.5,325.5 381.5,339.5C 381.5,359.833 381.5,380.167 381.5,400.5C 379.926,403.907 378.926,407.573 378.5,411.5C 378.34,413.153 377.674,414.486 376.5,415.5C 375.094,415.973 374.427,416.973 374.5,418.5C 372.167,420.167 370.167,422.167 368.5,424.5C 368.5,425.167 368.167,425.5 367.5,425.5C 365.847,425.66 364.514,426.326 363.5,427.5C 363.158,428.338 362.492,428.672 361.5,428.5C 354.835,430.488 348.169,431.821 341.5,432.5C 334.08,432.797 326.746,432.464 319.5,431.5C 317.898,429.926 315.898,429.259 313.5,429.5C 313.167,429.5 312.833,429.5 312.5,429.5C 312.027,428.094 311.027,427.427 309.5,427.5C 309.167,427.5 308.833,427.5 308.5,427.5C 308.027,426.094 307.027,425.427 305.5,425.5C 304.5,425.167 303.833,424.5 303.5,423.5C 302.833,422.167 301.833,421.167 300.5,420.5C 299.5,420.167 298.833,419.5 298.5,418.5C 298.34,416.847 297.674,415.514 296.5,414.5C 295.662,414.158 295.328,413.492 295.5,412.5C 294.409,408 293.076,403.666 291.5,399.5C 290.031,394.284 289.365,388.95 289.5,383.5C 290.285,333.333 290.285,283.333 289.5,233.5C 289.5,228.167 289.5,222.833 289.5,217.5C 289.5,194.5 289.5,171.5 289.5,148.5C 289.04,131.437 289.706,114.437 291.5,97.5C 291.5,96.8333 291.5,96.1667 291.5,95.5C 293.31,92.855 294.31,89.855 294.5,86.5C 295.906,86.0269 296.573,85.0269 296.5,83.5C 298.218,81.7772 299.551,79.7772 300.5,77.5C 303.473,75.8532 306.14,73.8532 308.5,71.5C 308.842,70.6618 309.508,70.3284 310.5,70.5C 313.916,70.4725 316.916,69.4725 319.5,67.5C 327.316,66.5076 335.316,66.1743 343.5,66.5 Z"/></g>
<g><path style="opacity:0.761" fill="#878787" d="M 402.5,66.5 C 404.027,66.427 405.027,67.0937 405.5,68.5C 403.973,68.573 402.973,67.9063 402.5,66.5 Z"/></g>
<g><path style="opacity:0.098" fill="#b8b8b8" d="M 343.5,66.5 C 352.752,65.8108 360.752,68.4775 367.5,74.5C 359.89,70.4076 351.89,67.741 343.5,66.5 Z"/></g>
<g><path style="opacity:0.733" fill="#7b7b7b" d="M 80.5,65.5 C 78.4309,68.5725 75.7642,70.9059 72.5,72.5C 74.5691,69.4275 77.2358,67.0941 80.5,65.5 Z"/></g>
<g><path style="opacity:0.773" fill="#7d7d7d" d="M 319.5,67.5 C 316.916,69.4725 313.916,70.4725 310.5,70.5C 313.145,68.6896 316.145,67.6896 319.5,67.5 Z"/></g>
<g><path style="opacity:1" fill="#000000" d="M 147.5,70.5 C 147.167,180.335 147.501,290.001 148.5,399.5C 157.318,400.493 166.318,400.827 175.5,400.5C 175.5,411.167 175.5,421.833 175.5,432.5C 155.5,432.5 135.5,432.5 115.5,432.5C 115.5,311.833 115.5,191.167 115.5,70.5C 126.167,70.5 136.833,70.5 147.5,70.5 Z"/></g>
<g><path style="opacity:0.294" fill="#c9c9c9" d="M 207.5,75.5 C 207.167,75.5 206.833,75.5 206.5,75.5C 206.5,74.1667 206.5,72.8333 206.5,71.5C 195.833,71.5 185.167,71.5 174.5,71.5C 174.5,96.1667 174.5,120.833 174.5,145.5C 173.502,120.672 173.169,95.6722 173.5,70.5C 184.833,70.5 196.167,70.5 207.5,70.5C 207.5,72.1667 207.5,73.8333 207.5,75.5 Z"/></g>
<g><path style="opacity:0.395" fill="#a0a0a0" d="M 148.5,70.5 C 148.167,70.5 147.833,70.5 147.5,70.5C 136.833,70.5 126.167,70.5 115.5,70.5C 115.5,191.167 115.5,311.833 115.5,432.5C 114.5,311.668 114.167,190.668 114.5,69.5C 126.012,69.1719 137.346,69.5052 148.5,70.5 Z"/></g>
<g><path style="opacity:1" fill="#010101" d="M 206.5,75.5 C 206.5,100.833 206.5,126.167 206.5,151.5C 206.209,165.532 206.709,179.532 208,193.5C 208.39,196.104 209.224,198.438 210.5,200.5C 211.363,202.421 212.029,204.421 212.5,206.5C 212.12,208.698 212.787,210.365 214.5,211.5C 215.338,211.842 215.672,212.508 215.5,213.5C 215.427,215.027 216.094,216.027 217.5,216.5C 218.674,217.514 219.34,218.847 219.5,220.5C 219.738,222.404 220.738,223.738 222.5,224.5C 223.338,224.842 223.672,225.508 223.5,226.5C 223.738,228.404 224.738,229.738 226.5,230.5C 226.738,232.404 227.738,233.738 229.5,234.5C 230.122,236.122 231.122,237.455 232.5,238.5C 232.833,239.167 233.167,239.833 233.5,240.5C 233.783,241.289 234.283,241.956 235,242.5C 235.5,185.501 235.667,128.501 235.5,71.5C 245.833,71.5 256.167,71.5 266.5,71.5C 266.5,191.5 266.5,311.5 266.5,431.5C 255.833,431.5 245.167,431.5 234.5,431.5C 234.5,422.167 234.5,412.833 234.5,403.5C 235.961,370.299 235.461,336.966 233,303.5C 232.356,299.381 230.856,295.715 228.5,292.5C 227.662,292.158 227.328,291.492 227.5,290.5C 226.89,288.566 225.89,286.899 224.5,285.5C 223.833,285.5 223.5,285.167 223.5,284.5C 223.573,282.973 222.906,281.973 221.5,281.5C 221.573,279.973 220.906,278.973 219.5,278.5C 218.094,278.027 217.427,277.027 217.5,275.5C 217.068,274.29 216.401,273.29 215.5,272.5C 214.5,272.167 213.833,271.5 213.5,270.5C 213.573,268.973 212.906,267.973 211.5,267.5C 211.446,265.368 210.446,264.035 208.5,263.5C 208.573,261.973 207.906,260.973 206.5,260.5C 205.662,260.158 205.328,259.492 205.5,258.5C 205.167,257.5 204.5,256.833 203.5,256.5C 201.808,254.795 200.475,252.795 199.5,250.5C 199.741,247.966 198.741,246.3 196.5,245.5C 196.25,243.326 195.25,241.659 193.5,240.5C 192.11,239.101 191.11,237.434 190.5,235.5C 190.573,233.973 189.906,232.973 188.5,232.5C 187.4,231.395 186.733,230.062 186.5,228.5C 186.008,226.181 185.008,224.181 183.5,222.5C 182.662,222.158 182.328,221.492 182.5,220.5C 182.072,217.215 181.072,214.215 179.5,211.5C 179.102,207.239 178.102,203.239 176.5,199.5C 176.745,193.916 176.078,188.583 174.5,183.5C 174.5,170.833 174.5,158.167 174.5,145.5C 174.5,120.833 174.5,96.1667 174.5,71.5C 185.167,71.5 195.833,71.5 206.5,71.5C 206.5,72.8333 206.5,74.1667 206.5,75.5 Z"/></g>
<g><path style="opacity:0.578" fill="#949494" d="M 234.5,71.5 C 234.5,71.1667 234.5,70.8333 234.5,70.5C 245.833,70.5 257.167,70.5 268.5,70.5C 268.5,191.167 268.5,311.833 268.5,432.5C 257.167,432.5 245.833,432.5 234.5,432.5C 234.5,432.167 234.5,431.833 234.5,431.5C 245.167,431.5 255.833,431.5 266.5,431.5C 266.5,311.5 266.5,191.5 266.5,71.5C 256.167,71.5 245.833,71.5 235.5,71.5C 235.167,71.5 234.833,71.5 234.5,71.5 Z"/></g>
<g><path style="opacity:0.239" fill="#c4c4c4" d="M 308.5,71.5 C 306.14,73.8532 303.473,75.8532 300.5,77.5C 302.299,74.3704 304.966,72.3704 308.5,71.5 Z"/></g>
<g><path style="opacity:0.02" fill="#d8d8d8" d="M 368.5,75.5 C 370.5,75.5 371.5,76.5 371.5,78.5C 370.167,77.8333 369.167,76.8333 368.5,75.5 Z"/></g>
<g><path style="opacity:0.725" fill="#9b9b9b" d="M 412.5,75.5 C 414.5,75.5 415.5,76.5 415.5,78.5C 414.167,77.8333 413.167,76.8333 412.5,75.5 Z"/></g>
<g><path style="opacity:0.631" fill="#9d9d9d" d="M 415.5,78.5 C 417.027,78.427 418.027,79.0937 418.5,80.5C 416.973,80.573 415.973,79.9063 415.5,78.5 Z"/></g>
<g><path style="opacity:0.702" fill="#a0a0a0" d="M 431.5,77.5 C 433.587,78.5846 434.92,80.2512 435.5,82.5C 433.413,81.4154 432.08,79.7488 431.5,77.5 Z"/></g>
<g><path style="opacity:0.663" fill="#8e8e8e" d="M 68.5,76.5 C 67.5806,79.0892 65.914,81.0892 63.5,82.5C 64.4194,79.9108 66.086,77.9108 68.5,76.5 Z"/></g>
<g><path style="opacity:0.137" fill="#b8b8b8" d="M 300.5,77.5 C 299.551,79.7772 298.218,81.7772 296.5,83.5C 296.622,80.7079 297.956,78.7079 300.5,77.5 Z"/></g>
<g><path style="opacity:0.208" fill="#acacac" d="M 371.5,78.5 C 373.587,79.5846 374.92,81.2512 375.5,83.5C 373.413,82.4154 372.08,80.7488 371.5,78.5 Z"/></g>
<g><path style="opacity:1" fill="#636363" d="M 418.5,81.5 C 421.179,81.5246 422.512,82.858 422.5,85.5C 420.833,84.5 419.5,83.1667 418.5,81.5 Z"/></g>
<g><path style="opacity:0.239" fill="#b8b8b8" d="M 296.5,83.5 C 296.573,85.0269 295.906,86.0269 294.5,86.5C 294.427,84.9731 295.094,83.9731 296.5,83.5 Z"/></g>
<g><path style="opacity:0.729" fill="#8d8d8d" d="M 59.5,86.5 C 59.573,88.0269 58.9063,89.0269 57.5,89.5C 57.427,87.9731 58.0937,86.9731 59.5,86.5 Z"/></g>
<g><path style="opacity:0.729" fill="#949494" d="M 439.5,86.5 C 440.906,86.9731 441.573,87.9731 441.5,89.5C 440.094,89.0269 439.427,88.0269 439.5,86.5 Z"/></g>
<g><path style="opacity:0.969" fill="#7d7d7d" d="M 376.5,85.5 C 378.915,88.3399 380.248,91.6733 380.5,95.5C 378.085,92.6601 376.752,89.3267 376.5,85.5 Z"/></g>
<g><path style="opacity:0.486" fill="#b0b0b0" d="M 294.5,86.5 C 294.31,89.855 293.31,92.855 291.5,95.5C 291.528,92.0836 292.528,89.0836 294.5,86.5 Z"/></g>
<g><path style="opacity:0.075" fill="#c7c7c7" d="M 380.5,96.5 C 381.924,98.5145 382.59,100.848 382.5,103.5C 381.076,101.485 380.41,99.1522 380.5,96.5 Z"/></g>
<g><path style="opacity:0.498" fill="#939393" d="M 450.5,100.5 C 451.906,100.973 452.573,101.973 452.5,103.5C 451.094,103.027 450.427,102.027 450.5,100.5 Z"/></g>
<g><path style="opacity:0.853" fill="#242424" d="M 234.5,71.5 C 234.833,71.5 235.167,71.5 235.5,71.5C 235.667,128.501 235.5,185.501 235,242.5C 234.283,241.956 233.783,241.289 233.5,240.5C 234.499,184.336 234.832,128.002 234.5,71.5 Z"/></g>
<g><path style="opacity:0.165" fill="#cbcbcb" d="M 345.5,101.5 C 347.539,102.911 348.539,104.911 348.5,107.5C 346.992,105.819 345.992,103.819 345.5,101.5 Z"/></g>
<g><path style="opacity:0.502" fill="#959595" d="M 455.5,107.5 C 456.906,107.973 457.573,108.973 457.5,110.5C 456.094,110.027 455.427,109.027 455.5,107.5 Z"/></g>
<g><path style="opacity:0.435" fill="#919191" d="M 41.5,110.5 C 41.573,112.027 40.9063,113.027 39.5,113.5C 39.427,111.973 40.0937,110.973 41.5,110.5 Z"/></g>
<g><path style="opacity:0.435" fill="#969696" d="M 457.5,110.5 C 458.906,110.973 459.573,111.973 459.5,113.5C 458.094,113.027 457.427,112.027 457.5,110.5 Z"/></g>
<g><path style="opacity:0.787" fill="#797979" d="M 206.5,75.5 C 206.833,75.5 207.167,75.5 207.5,75.5C 208.819,100.833 208.819,126.166 207.5,151.5C 207.167,151.5 206.833,151.5 206.5,151.5C 206.5,126.167 206.5,100.833 206.5,75.5 Z"/></g>
<g><path style="opacity:0.559" fill="#878787" d="M 291.5,97.5 C 289.706,114.437 289.04,131.437 289.5,148.5C 288.506,139.014 288.173,129.348 288.5,119.5C 288.756,117.208 288.423,115.041 287.5,113C 288.607,107.675 289.94,102.508 291.5,97.5 Z"/></g>
<g><path style="opacity:0.117" fill="#cbcbcb" d="M 345.5,101.5 C 332.569,95.7121 325.069,99.7121 323,113.5C 323.343,171.628 323.176,229.628 322.5,287.5C 322.155,229.165 321.988,170.832 322,112.5C 323.317,99.9121 330.151,95.4121 342.5,99C 343.942,99.3768 344.942,100.21 345.5,101.5 Z"/></g>
<g><path style="opacity:0.176" fill="#d4d4d4" d="M 234.5,70.5 C 234.5,70.8333 234.5,71.1667 234.5,71.5C 234.832,128.002 234.499,184.336 233.5,240.5C 233.167,239.833 232.833,239.167 232.5,238.5C 233.741,189.165 233.741,139.665 232.5,90C 232.667,83.8333 232.833,77.6667 233,71.5C 233.383,70.944 233.883,70.6107 234.5,70.5 Z"/></g>
<g><path style="opacity:0.278" fill="#a9a9a9" d="M 206.5,151.5 C 206.833,151.5 207.167,151.5 207.5,151.5C 206.89,167.951 207.89,184.284 210.5,200.5C 209.224,198.438 208.39,196.104 208,193.5C 206.709,179.532 206.209,165.532 206.5,151.5 Z"/></g>
<g><path style="opacity:0.537" fill="#777777" d="M 147.5,70.5 C 147.833,70.5 148.167,70.5 148.5,70.5C 147.839,180.378 148.505,290.044 150.5,399.5C 149.833,399.5 149.167,399.5 148.5,399.5C 147.501,290.001 147.167,180.335 147.5,70.5 Z"/></g>
<g><path style="opacity:0.107" fill="#e4e4e4" d="M 288.5,119.5 C 288.173,129.348 288.506,139.014 289.5,148.5C 289.5,171.5 289.5,194.5 289.5,217.5C 288.798,201.151 288.132,184.651 287.5,168C 287.565,151.687 287.899,135.521 288.5,119.5 Z"/></g>
<g><path style="opacity:0.922" fill="#7b7b7b" d="M 6.5,190.5 C 6.82943,193.228 6.16276,195.562 4.5,197.5C 4.72148,194.933 5.38815,192.599 6.5,190.5 Z"/></g>
<g><path style="opacity:0.118" fill="#cfcfcf" d="M 174.5,183.5 C 176.078,188.583 176.745,193.916 176.5,199.5C 175.194,194.384 174.527,189.051 174.5,183.5 Z"/></g>
<g><path style="opacity:0.724" fill="#484848" d="M 382.5,196.5 C 382.5,198.167 382.5,199.833 382.5,201.5C 375.833,201.5 369.167,201.5 362.5,201.5C 357.968,201.818 353.634,201.485 349.5,200.5C 360.167,200.5 370.833,200.5 381.5,200.5C 381.232,198.901 381.566,197.568 382.5,196.5 Z"/></g>
<g><path style="opacity:0.098" fill="#d0d0d0" d="M 382.5,105.5 C 383.314,107.631 383.814,109.964 384,112.5C 384.409,142.502 384.242,172.502 383.5,202.5C 376.313,202.825 369.313,202.491 362.5,201.5C 369.167,201.5 375.833,201.5 382.5,201.5C 382.5,199.833 382.5,198.167 382.5,196.5C 383.522,166.16 383.522,135.827 382.5,105.5 Z"/></g>
<g><path style="opacity:0.11" fill="#bbbbbb" d="M 176.5,199.5 C 178.102,203.239 179.102,207.239 179.5,211.5C 177.584,207.837 176.584,203.837 176.5,199.5 Z"/></g>
<g><path style="opacity:0.816" fill="#8b8b8b" d="M 212.5,206.5 C 213.931,207.78 214.598,209.447 214.5,211.5C 212.787,210.365 212.12,208.698 212.5,206.5 Z"/></g>
<g><path style="opacity:0.047" fill="#c0c0c0" d="M 179.5,211.5 C 181.072,214.215 182.072,217.215 182.5,220.5C 180.132,218.044 179.132,215.044 179.5,211.5 Z"/></g>
<g><path style="opacity:0.227" fill="#c3c3c3" d="M 215.5,213.5 C 216.906,213.973 217.573,214.973 217.5,216.5C 216.094,216.027 215.427,215.027 215.5,213.5 Z"/></g>
<g><path style="opacity:0.416" fill="#afafaf" d="M 219.5,220.5 C 221.262,221.262 222.262,222.596 222.5,224.5C 220.738,223.738 219.738,222.404 219.5,220.5 Z"/></g>
<g><path style="opacity:0.118" fill="#c4c4c4" d="M 183.5,222.5 C 185.008,224.181 186.008,226.181 186.5,228.5C 184.461,227.089 183.461,225.089 183.5,222.5 Z"/></g>
<g><path style="opacity:0.533" fill="#9a9a9a" d="M 223.5,226.5 C 225.262,227.262 226.262,228.596 226.5,230.5C 224.738,229.738 223.738,228.404 223.5,226.5 Z"/></g>
<g><path style="opacity:0.455" fill="#ababab" d="M 226.5,230.5 C 228.262,231.262 229.262,232.596 229.5,234.5C 227.738,233.738 226.738,232.404 226.5,230.5 Z"/></g>
<g><path style="opacity:0.129" fill="#d1d1d1" d="M 188.5,232.5 C 189.906,232.973 190.573,233.973 190.5,235.5C 189.094,235.027 188.427,234.027 188.5,232.5 Z"/></g>
<g><path style="opacity:0.008" fill="#c1c1c1" d="M 229.5,234.5 C 231.532,235.048 232.532,236.381 232.5,238.5C 231.122,237.455 230.122,236.122 229.5,234.5 Z"/></g>
<g><path style="opacity:0.227" fill="#c3c3c3" d="M 193.5,240.5 C 195.25,241.659 196.25,243.326 196.5,245.5C 194.75,244.341 193.75,242.674 193.5,240.5 Z"/></g>
<g><path style="opacity:0.933" fill="#7e7e7e" d="M 196.5,245.5 C 198.741,246.3 199.741,247.966 199.5,250.5C 198.263,249.035 197.263,247.368 196.5,245.5 Z"/></g>
<g><path style="opacity:0.004" fill="#e1e1e1" d="M 203.5,256.5 C 204.5,256.833 205.167,257.5 205.5,258.5C 204.167,258.5 203.5,257.833 203.5,256.5 Z"/></g>
<g><path style="opacity:0.02" fill="#d3d3d3" d="M 206.5,260.5 C 207.906,260.973 208.573,261.973 208.5,263.5C 207.094,263.027 206.427,262.027 206.5,260.5 Z"/></g>
<g><path style="opacity:0.549" fill="#999999" d="M 208.5,263.5 C 210.446,264.035 211.446,265.368 211.5,267.5C 210.026,266.564 209.026,265.23 208.5,263.5 Z"/></g>
<g><path style="opacity:0.082" fill="#d1d1d1" d="M 211.5,267.5 C 212.906,267.973 213.573,268.973 213.5,270.5C 212.094,270.027 211.427,269.027 211.5,267.5 Z"/></g>
<g><path style="opacity:0.098" fill="#cacaca" d="M 215.5,272.5 C 216.401,273.29 217.068,274.29 217.5,275.5C 215.952,275.179 215.285,274.179 215.5,272.5 Z"/></g>
<g><path style="opacity:0.11" fill="#cfcfcf" d="M 219.5,278.5 C 220.906,278.973 221.573,279.973 221.5,281.5C 220.094,281.027 219.427,280.027 219.5,278.5 Z"/></g>
<g><path style="opacity:0.027" fill="#d4d4d4" d="M 221.5,281.5 C 222.906,281.973 223.573,282.973 223.5,284.5C 222.094,284.027 221.427,283.027 221.5,281.5 Z"/></g>
<g><path style="opacity:0.094" fill="#c7c7c7" d="M 224.5,285.5 C 225.89,286.899 226.89,288.566 227.5,290.5C 225.273,289.599 224.273,287.933 224.5,285.5 Z"/></g>
<g><path style="opacity:0.239" fill="#acacac" d="M 228.5,292.5 C 230.856,295.715 232.356,299.381 233,303.5C 235.461,336.966 235.961,370.299 234.5,403.5C 234.5,398.5 234.5,393.5 234.5,388.5C 234.232,360.48 233.399,332.48 232,304.5C 230.924,300.441 229.757,296.441 228.5,292.5 Z"/></g>
<g><path style="opacity:0.965" fill="#676767" d="M 16.5,302.5 C 17.7682,304.905 18.4349,307.572 18.5,310.5C 16.9605,308.162 16.2938,305.495 16.5,302.5 Z"/></g>
<g><path style="opacity:0.852" fill="#545454" d="M 349.5,296.5 C 360.346,296.172 371.013,296.506 381.5,297.5C 371.167,297.5 360.833,297.5 350.5,297.5C 350.831,325.338 350.498,353.005 349.5,380.5C 349.341,352.415 349.341,324.415 349.5,296.5 Z"/></g>
<g><path style="opacity:0.144" fill="#cecece" d="M 349.5,296.5 C 360.321,295.505 371.321,295.172 382.5,295.5C 382.5,310.167 382.5,324.833 382.5,339.5C 382.167,339.5 381.833,339.5 381.5,339.5C 381.5,325.5 381.5,311.5 381.5,297.5C 371.013,296.506 360.346,296.172 349.5,296.5 Z"/></g>
<g><path style="opacity:0.385" fill="#adadad" d="M 289.5,233.5 C 290.285,283.333 290.285,333.333 289.5,383.5C 288.846,333.668 288.846,283.668 289.5,233.5 Z"/></g>
<g><path style="opacity:0.467" fill="#939393" d="M 459.5,363.5 C 459.573,365.027 458.906,366.027 457.5,366.5C 457.427,364.973 458.094,363.973 459.5,363.5 Z"/></g>
<g><path style="opacity:0.978" fill="#4a4a4a" d="M 381.5,339.5 C 381.833,339.5 382.167,339.5 382.5,339.5C 383.569,357.818 383.736,376.151 383,394.5C 382.809,396.708 382.309,398.708 381.5,400.5C 381.5,380.167 381.5,359.833 381.5,339.5 Z"/></g>
<g><path style="opacity:0.498" fill="#939393" d="M 46.5,375.5 C 47.9063,375.973 48.573,376.973 48.5,378.5C 47.0937,378.027 46.427,377.027 46.5,375.5 Z"/></g>
<g><path style="opacity:0.592" fill="#818181" d="M 448.5,381.5 C 448.573,383.027 447.906,384.027 446.5,384.5C 446.427,382.973 447.094,381.973 448.5,381.5 Z"/></g>
<g><path style="opacity:0.137" fill="#acacac" d="M 348.5,388.5 C 348.982,391.831 347.982,394.497 345.5,396.5C 345.98,393.557 346.98,390.89 348.5,388.5 Z"/></g>
<g><path style="opacity:0.18" fill="#c5c5c5" d="M 323.5,389.5 C 324.736,391.649 325.736,393.982 326.5,396.5C 324.166,394.824 323.166,392.491 323.5,389.5 Z"/></g>
<g><path style="opacity:0.529" fill="#949494" d="M 61.5,396.5 C 62.9063,396.973 63.573,397.973 63.5,399.5C 62.0937,399.027 61.427,398.027 61.5,396.5 Z"/></g>
<g><path style="opacity:0.624" fill="#8f8f8f" d="M 326.5,396.5 C 332.847,400.393 339.18,400.393 345.5,396.5C 342.908,399.456 339.574,400.789 335.5,400.5C 331.511,401 328.511,399.666 326.5,396.5 Z"/></g>
<g><path style="opacity:0.78" fill="#868686" d="M 65.5,401.5 C 66.9063,401.973 67.573,402.973 67.5,404.5C 66.0937,404.027 65.427,403.027 65.5,401.5 Z"/></g>
<g><path style="opacity:0.677" fill="#838383" d="M 175.5,432.5 C 175.5,421.833 175.5,411.167 175.5,400.5C 166.318,400.827 157.318,400.493 148.5,399.5C 149.167,399.5 149.833,399.5 150.5,399.5C 159.241,399.293 167.907,399.293 176.5,399.5C 176.833,405 177.167,410.5 177.5,416C 177.495,421.876 176.829,427.376 175.5,432.5 Z"/></g>
<g><path style="opacity:0.055" fill="#b8b8b8" d="M 381.5,400.5 C 381.568,404.57 380.568,408.237 378.5,411.5C 378.926,407.573 379.926,403.907 381.5,400.5 Z"/></g>
<g><path style="opacity:0.78" fill="#858585" d="M 432.5,402.5 C 432.262,404.404 431.262,405.738 429.5,406.5C 429.738,404.596 430.738,403.262 432.5,402.5 Z"/></g>
<g><path style="opacity:0.216" fill="#bcbcbc" d="M 291.5,399.5 C 293.076,403.666 294.409,408 295.5,412.5C 292.793,408.693 291.46,404.36 291.5,399.5 Z"/></g>
<g><path style="opacity:0.753" fill="#959595" d="M 73.5,410.5 C 75.5869,411.585 76.9202,413.251 77.5,415.5C 75.4131,414.415 74.0798,412.749 73.5,410.5 Z"/></g>
<g><path style="opacity:0.12" fill="#e6e6e6" d="M 234.5,388.5 C 234.5,393.5 234.5,398.5 234.5,403.5C 234.5,412.833 234.5,422.167 234.5,431.5C 234.5,431.833 234.5,432.167 234.5,432.5C 233.673,427.668 233.007,422.668 232.5,417.5C 233.091,407.677 233.758,398.01 234.5,388.5 Z"/></g>
<g><path style="opacity:0.125" fill="#cdcdcd" d="M 296.5,414.5 C 297.674,415.514 298.34,416.847 298.5,418.5C 296.896,417.713 296.229,416.38 296.5,414.5 Z"/></g>
<g><path style="opacity:0.671" fill="#808080" d="M 422.5,413.5 C 418.5,419.5 413.5,424.5 407.5,428.5C 412.167,423.167 417.167,418.167 422.5,413.5 Z"/></g>
<g><path style="opacity:0.18" fill="#bbbbbb" d="M 376.5,415.5 C 376.573,417.027 375.906,418.027 374.5,418.5C 374.427,416.973 375.094,415.973 376.5,415.5 Z"/></g>
<g><path style="opacity:0.035" fill="#d5d5d5" d="M 374.5,418.5 C 373.5,421.5 371.5,423.5 368.5,424.5C 370.167,422.167 372.167,420.167 374.5,418.5 Z"/></g>
<g><path style="opacity:0.027" fill="#c7c7c7" d="M 300.5,420.5 C 301.833,421.167 302.833,422.167 303.5,423.5C 301.5,423.5 300.5,422.5 300.5,420.5 Z"/></g>
<g><path style="opacity:0.208" fill="#c3c3c3" d="M 305.5,425.5 C 307.027,425.427 308.027,426.094 308.5,427.5C 306.973,427.573 305.973,426.906 305.5,425.5 Z"/></g>
<g><path style="opacity:0.129" fill="#c6c6c6" d="M 367.5,425.5 C 366.713,427.104 365.38,427.771 363.5,427.5C 364.514,426.326 365.847,425.66 367.5,425.5 Z"/></g>
<g><path style="opacity:0.247" fill="#b2b2b2" d="M 309.5,427.5 C 311.027,427.427 312.027,428.094 312.5,429.5C 310.973,429.573 309.973,428.906 309.5,427.5 Z"/></g>
<g><path style="opacity:0.737" fill="#9d9d9d" d="M 76.5,430.5 C 79.0892,431.419 81.0892,433.086 82.5,435.5C 79.9108,434.581 77.9108,432.914 76.5,430.5 Z"/></g>
<g><path style="opacity:0.278" fill="#b3b3b3" d="M 313.5,429.5 C 315.898,429.259 317.898,429.926 319.5,431.5C 317.102,431.741 315.102,431.074 313.5,429.5 Z"/></g>
<g><path style="opacity:0.125" fill="#b7b7b7" d="M 361.5,428.5 C 355.382,431.918 348.715,433.251 341.5,432.5C 348.169,431.821 354.835,430.488 361.5,428.5 Z"/></g>
<g><path style="opacity:0.863" fill="#686868" d="M 406.5,429.5 C 405.089,431.914 403.089,433.581 400.5,434.5C 401.911,432.086 403.911,430.419 406.5,429.5 Z"/></g>
<g><path style="opacity:0.71" fill="#969696" d="M 86.5,439.5 C 88.0269,439.427 89.0269,440.094 89.5,441.5C 87.9731,441.573 86.9731,440.906 86.5,439.5 Z"/></g>
<g><path style="opacity:0.769" fill="#828282" d="M 391.5,441.5 C 391.027,442.906 390.027,443.573 388.5,443.5C 388.973,442.094 389.973,441.427 391.5,441.5 Z"/></g>
<g><path style="opacity:0.553" fill="#929292" d="M 96.5,447.5 C 98.0269,447.427 99.0269,448.094 99.5,449.5C 97.9731,449.573 96.9731,448.906 96.5,447.5 Z"/></g>
<g><path style="opacity:0.561" fill="#818181" d="M 103.5,452.5 C 105.027,452.427 106.027,453.094 106.5,454.5C 104.973,454.573 103.973,453.906 103.5,452.5 Z"/></g>
<g><path style="opacity:0.439" fill="#979797" d="M 115.5,460.5 C 117.027,460.427 118.027,461.094 118.5,462.5C 116.973,462.573 115.973,461.906 115.5,460.5 Z"/></g>
<g><path style="opacity:0.922" fill="#696969" d="M 313.5,479.5 C 311.485,480.924 309.152,481.59 306.5,481.5C 308.515,480.076 310.848,479.41 313.5,479.5 Z"/></g>
</svg>
