<?xml version="1.0" encoding="UTF-8" standalone="no"?>
<!-- Created with Inkscape (http://www.inkscape.org/) -->

<svg
   width="210mm"
   height="297mm"
   viewBox="0 0 210 297"
   version="1.1"
   id="svg5"
   inkscape:export-filename="C:\Users\lorri\Downloads\lyc blanc.png"
   inkscape:export-xdpi="96"
   inkscape:export-ydpi="96"
   sodipodi:docname="logo_dark.png.svg"
   inkscape:version="1.1.1 (3bf5ae0d25, 2021-09-20)"
   xmlns:inkscape="http://www.inkscape.org/namespaces/inkscape"
   xmlns:sodipodi="http://sodipodi.sourceforge.net/DTD/sodipodi-0.dtd"
   xmlns:xlink="http://www.w3.org/1999/xlink"
   xmlns="http://www.w3.org/2000/svg"
   xmlns:svg="http://www.w3.org/2000/svg">
  <sodipodi:namedview
     id="namedview7"
     pagecolor="#505050"
     bordercolor="#eeeeee"
     borderopacity="1"
     inkscape:pageshadow="0"
     inkscape:pageopacity="0"
     inkscape:pagecheckerboard="0"
     inkscape:document-units="mm"
     showgrid="false"
     inkscape:zoom="0.5"
     inkscape:cx="339"
     inkscape:cy="489"
     inkscape:window-width="1920"
     inkscape:window-height="1057"
     inkscape:window-x="-8"
     inkscape:window-y="-8"
     inkscape:window-maximized="1"
     inkscape:current-layer="layer2" />
  <defs
     id="defs2" />
  <g
     inkscape:groupmode="layer"
     id="layer2"
     inkscape:label="Calque 2">
    <path
       style="fill:#000000;stroke:#000000;stroke-width:0.264583px;stroke-linecap:butt;stroke-linejoin:miter;stroke-opacity:1"
       d="M 47.257739,67.054901 V 233.81938 H 75.314362 V 219.08859 H 62.286554 V 67.097475 Z"
       id="path972" />
    <path
       style="fill:#000000;stroke:#000000;stroke-width:0.264583px;stroke-linecap:butt;stroke-linejoin:miter;stroke-opacity:1"
       d="M 89.427824,67.374211 H 74.782182 l 0.187089,47.473359 c 0.204616,7.73311 0.84752,13.29036 3.024239,19.62924 1.044399,3.04143 2.863079,5.9655 4.88873,9.40983 9.991992,16.98996 18.39104,23.44062 18.92936,32.08242 0.86173,13.83365 1.40093,25.84322 0.58017,57.74388 h 14.93302 V 67.2252 h -14.8053 l -0.13229,78.78263 C 84.067648,123.27984 91.045572,123.67524 89.427824,67.374211 Z"
       id="path974"
       sodipodi:nodetypes="cccssscccccc" />
    <path
       style="fill:#000000;stroke:#000000;stroke-width:0.264583px;stroke-linecap:butt;stroke-linejoin:miter;stroke-opacity:1"
       d="m 170.55361,127.21273 c -0.18446,-34.670825 6.93316,-62.336716 -20.98925,-62.031108 -27.19687,-0.106363 -21.29748,19.942826 -21.55424,60.632608 0.0524,12.14894 0.626,29.11078 0.23222,45.91336 -1.14708,48.94652 -2.29091,61.74229 20.59826,62.17694 30.48782,0.17483 19.75677,-24.27385 21.54271,-62.41428 h -14.60306 c -0.65608,35.07632 2.96867,47.46917 -6.08816,47.76864 -8.56568,-0.36032 -7.38942,-2.66841 -6.92401,-47.47139 0.0586,-12.23141 0.3627,-28.27774 0.12612,-45.70384 -0.55854,-41.140231 -2.081,-46.303272 6.43002,-46.510224 9.53354,0.377462 6.05234,8.136321 6.31692,47.459634 z"
       id="path976"
       sodipodi:nodetypes="cccscccccsccc"
       inkscape:export-filename="C:\Users\lorri\Downloads\path976.png"
       inkscape:export-xdpi="96"
       inkscape:export-ydpi="96" />
  </g>
</svg>
