<svg id="eweP2SzBvaO1" xmlns="http://www.w3.org/2000/svg" xmlns:xlink="http://www.w3.org/1999/xlink" viewBox="0 0 500 500" shape-rendering="geometricPrecision" text-rendering="geometricPrecision"><g clip-rule="evenodd"><path d="M228.5,-0.5c14,0,28,0,42,0c63.282,6.47638,116.949,32.4764,161,78c.58,2.2488,1.913,3.9154,4,5c1.667,1,3,2.3333,4,4-.073,1.5269.594,2.5269,2,3c3.348,3.3514,6.348,7.0181,9,11-.073,1.527.594,2.527,2,3c1.474.936,2.474,2.27,3,4-.073,1.527.594,2.527,2,3-.073,1.527.594,2.527,2,3c22.676,34.693,36.009,72.693,40,114c0,14.667,0,29.333,0,44-11.914,95.388-60.914,164.222-147,206.5-26.304,11.574-53.637,18.741-82,21.5-14,0-28,0-42,0-39.636-3.545-76.303-15.879-110-37-.473-1.406-1.473-2.073-3-2-3.525-1.259-6.525-3.259-9-6-.473-1.406-1.473-2.073-3-2-1.904-.238-3.238-1.238-4-3-.4731-1.406-1.4731-2.073-3-2-2.9323-1.3-5.2656-3.3-7-6-.4731-1.406-1.4731-2.073-3-2-1.6667-1-3-2.333-4-4-1.4108-2.414-3.4108-4.081-6-5-44.652-43.641-70.31868-96.641-77-159c0-14.333,0-28.667,0-43c1.247155-10.275,2.91382-20.608,5-31c1.66276-1.938,2.32943-4.272,2-7c6.1624-27.846,17.1624-53.512,33-77c1.4063-.473,2.073-1.473,2-3c4.5731-7.574,9.9065-14.5739,16-21c1.4063-.4731,2.073-1.4731,2-3c1-1.6667,2.3333-3,4-4c2.414-1.4108,4.0806-3.4108,5-6c1-1.6667,2.3333-3,4-4c3.2642-1.5941,5.9309-3.9275,8-7c1-1.6667,2.3333-3,4-4c2.2488-.5798,3.9154-1.9131,5-4c40.182-33.7369,86.515-53.07026,139-58Zm98,24c1.43,1.0375,3.097,1.7041,5,2c11.564,4.448,22.897,9.448,34,15c.473,1.4063,1.473,2.073,3,2c1.014,1.1737,2.347,1.8404,4,2c.473,1.4063,1.473,2.073,3,2c.473,1.4063,1.473,2.073,3,2c.473,1.4063,1.473,2.073,3,2c.473,1.4063,1.473,2.073,3,2c5.69,5.0179,11.69,9.6846,18,14c.473,1.4063,1.473,2.073,3,2c2,2.6667,4.333,5,7,7c.667,1.3333,1.667,2.3333,3,3c.473,1.4063,1.473,2.073,3,2c0,.3333,0,.6667,0,1c1,1.6667,2.333,3,4,4c54.64,60.525,74.807,131.192,60.5,212-5.307,22.937-13.14,44.937-23.5,66-1.406.473-2.073,1.473-2,3-3.248,4.826-6.248,9.826-9,15-1.406.473-2.073,1.473-2,3-5.018,5.69-9.685,11.69-14,18-1.762.762-2.762,2.096-3,4-2.667,2-5,4.333-7,7-5.333,4.667-10.333,9.667-15,15-.667,0-1,.333-1,1-2.589.919-4.589,2.586-6,5-3.31,1.982-6.31,4.315-9,7-1.527-.073-2.527.594-3,2-23.063,16.032-48.063,28.032-75,36-2.652-.09-4.985.576-7,2-88.055,17.91-164.388-4.09-229-66-.5798-2.249-1.9131-3.915-4-5-1.6667-2.333-3.6667-4.333-6-6c.073-1.527-.5937-2.527-2-3-.3333-1-1-1.667-2-2c.073-1.527-.5937-2.527-2-3-4.3454-6.038-8.6788-12.038-13-18c.073-1.527-.5937-2.527-2-3-11.8212-20.638-21.1546-42.304-28-65-.0651-2.928-.7318-5.595-2-8C1.3838,224.966,18.5505,155.633,68,94.5C128.373,27.9268,203.206,1.4268,292.5,15c11.512,2.2112,22.845,5.0445,34,8.5Z" clip-rule="evenodd" fill="#181818" fill-rule="evenodd"/></g><g clip-rule="evenodd"><path d="M343.5,66.5c8.39,1.241,16.39,3.9076,24,8c.667,0,1,.3333,1,1c.667,1.3333,1.667,2.3333,3,3c.58,2.2488,1.913,3.9154,4,5c.838.3417,1.172,1.0084,1,2c.252,3.8267,1.585,7.1601,4,10c0,.3333,0,.6667,0,1-.09,2.6522.576,4.985,2,7c0,.667,0,1.333,0,2c1.022,30.327,1.022,60.66,0,91-.934,1.068-1.268,2.401-1,4-10.667,0-21.333,0-32,0c.016-30.852-.317-61.852-1-93c.039-2.589-.961-4.589-3-6-.558-1.29-1.558-2.1232-3-2.5-12.349-3.5879-19.183.9121-20.5,13.5-.012,58.332.155,116.665.5,175-.291,34.018.042,68.018,1,102-.334,2.991.666,5.324,3,7c2.011,3.166,5.011,4.5,9,4c4.074.289,7.408-1.044,10-4c2.482-2.003,3.482-4.669,3-8-.099-2.737.235-5.404,1-8c.998-27.495,1.331-55.162,1-83c10.333,0,20.667,0,31,0c0,14,0,28,0,42c0,20.333,0,40.667,0,61-1.574,3.407-2.574,7.073-3,11-.16,1.653-.826,2.986-2,4-1.406.473-2.073,1.473-2,3-2.333,1.667-4.333,3.667-6,6c0,.667-.333,1-1,1-1.653.16-2.986.826-4,2-.342.838-1.008,1.172-2,1-6.665,1.988-13.331,3.321-20,4-7.42.297-14.754-.036-22-1-1.602-1.574-3.602-2.241-6-2-.333,0-.667,0-1,0-.473-1.406-1.473-2.073-3-2-.333,0-.667,0-1,0-.473-1.406-1.473-2.073-3-2-1-.333-1.667-1-2-2-.667-1.333-1.667-2.333-3-3-1-.333-1.667-1-2-2-.16-1.653-.826-2.986-2-4-.838-.342-1.172-1.008-1-2-1.091-4.5-2.424-8.834-4-13-1.469-5.216-2.135-10.55-2-16c.785-50.167.785-100.167,0-150c0-5.333,0-10.667,0-16c0-23,0-46,0-69-.46-17.063.206-34.063,2-51c0-.6667,0-1.3333,0-2c1.81-2.645,2.81-5.645,3-9c1.406-.4731,2.073-1.4731,2-3c1.718-1.7228,3.051-3.7228,4-6c2.973-1.6468,5.64-3.6468,8-6c.342-.8382,1.008-1.1716,2-1c3.416-.0275,6.416-1.0275,9-3c7.816-.9924,15.816-1.3257,24-1Z" clip-rule="evenodd" fill="#050505" fill-rule="evenodd"/></g><g clip-rule="evenodd"><path d="M147.5,70.5c-.333,109.835.001,219.501,1,329c8.818.993,17.818,1.327,27,1c0,10.667,0,21.333,0,32-20,0-40,0-60,0c0-120.667,0-241.333,0-362c10.667,0,21.333,0,32,0Z" clip-rule="evenodd" fill-rule="evenodd"/></g><g clip-rule="evenodd"><path d="M206.5,75.5c0,25.333,0,50.667,0,76-.291,14.032.209,28.032,1.5,42c.39,2.604,1.224,4.938,2.5,7c.863,1.921,1.529,3.921,2,6-.38,2.198.287,3.865,2,5c.838.342,1.172,1.008,1,2-.073,1.527.594,2.527,2,3c1.174,1.014,1.84,2.347,2,4c.238,1.904,1.238,3.238,3,4c.838.342,1.172,1.008,1,2c.238,1.904,1.238,3.238,3,4c.238,1.904,1.238,3.238,3,4c.622,1.622,1.622,2.955,3,4c.333.667.667,1.333,1,2c.283.789.783,1.456,1.5,2c.5-56.999.667-113.999.5-171c10.333,0,20.667,0,31,0c0,120,0,240,0,360-10.667,0-21.333,0-32,0c0-9.333,0-18.667,0-28c1.461-33.201.961-66.534-1.5-100-.644-4.119-2.144-7.785-4.5-11-.838-.342-1.172-1.008-1-2-.61-1.934-1.61-3.601-3-5-.667,0-1-.333-1-1c.073-1.527-.594-2.527-2-3c.073-1.527-.594-2.527-2-3s-2.073-1.473-2-3c-.432-1.21-1.099-2.21-2-3-1-.333-1.667-1-2-2c.073-1.527-.594-2.527-2-3-.054-2.132-1.054-3.465-3-4c.073-1.527-.594-2.527-2-3-.838-.342-1.172-1.008-1-2-.333-1-1-1.667-2-2-1.692-1.705-3.025-3.705-4-6c.241-2.534-.759-4.2-3-5-.25-2.174-1.25-3.841-3-5-1.39-1.399-2.39-3.066-3-5c.073-1.527-.594-2.527-2-3-1.1-1.105-1.767-2.438-2-4-.492-2.319-1.492-4.319-3-6-.838-.342-1.172-1.008-1-2-.428-3.285-1.428-6.285-3-9-.398-4.261-1.398-8.261-3-12c.245-5.584-.422-10.917-2-16c0-12.667,0-25.333,0-38c0-24.667,0-49.3333,0-74c10.667,0,21.333,0,32,0c0,1.3333,0,2.6667,0,4Z" clip-rule="evenodd" fill="#010101" fill-rule="evenodd"/></g></svg>
